:SAMPLES-PER-SECOND 30
:FULLY-SPECIFIED
:DEGREES
384
root  0.664395 30.9455 -11.426 82.684 10.4606 86.2981
Spine  -4.84331 -1.15664 -6.94705
Spine1  -2.59147 18.761 7.02465
Neck  3.97569e-016 0 -2.38542e-015
Head  33.9069 -10.0737 7.92589
R_Clavicle  0.399828 -15.298 1.7942
R_UpperArm  5.24917 0.59582 14.6403
R_Forearm  17.8844 -6.115 5.07112
R_Hand  -0.933092 7.86701 -18.3527
L_Clavicle  -0.578163 18.0845 -3.36879
L_UpperArm  -8.42622 14.3228 21.1417
L_Forearm  -2.8823 33.9316 37.7468
L_Hand  -0.0659751 -0.0744499 -1.35895
L_Thigh  -0.292105 5.30084 -8.60202
L_Calf  -4.91316 2.95153 -22.4675
L_Foot  0.488904 5.1817 -3.20362
L_Toe0  0.894531 0.0177575 -6.35945
R_Thigh  -0.333607 5.56782 -9.18599
R_Calf  -6.465 4.57277 14.6468
R_Foot  -0.901055 0.35388 8.78141
R_Toe0  -1.79382 -0.272711 -17.3265
385
root  0.32063 31.3529 -10.1948 84.3171 10.1277 87.1765
Spine  -3.84669 0.245611 -8.18646
Spine1  -2.01864 15.3273 6.4595
Neck  3.97569e-016 0 -2.38542e-015
Head  30.8798 -9.92355 9.1636
R_Clavicle  0.404762 -14.4439 1.90113
R_UpperArm  4.44784 0.423062 11.2837
R_Forearm  15.3695 -5.41223 4.47888
R_Hand  -0.607636 8.79838 -16.1289
L_Clavicle  -0.608251 18.4829 -3.62366
L_UpperArm  -13.9433 16.5796 22.7695
L_Forearm  1.94369 37.7499 39.8082
L_Hand  -0.0571395 -1.32398 -1.63956
L_Thigh  -0.374318 4.17264 -4.51502
L_Calf  -4.7503 2.52849 -19.1966
L_Foot  1.04559 6.59926 -2.21895
L_Toe0  0.0541602 0.0414101 -5.89814
R_Thigh  0.107824 5.01496 -12.757
R_Calf  -4.93236 5.47575 17.5641
R_Foot  -1.08297 0.177828 9.74614
R_Toe0  -1.76727 -0.272363 -17.3321
386
root  0.00906694 31.8947 -9.00813 85.5905 9.37002 87.9157
Spine  -2.28152 2.77105 -9.26525
Spine1  -1.20056 10.4461 5.02526
Neck  3.97569e-016 0 -2.38542e-015
Head  26.1856 -9.49272 11.3727
R_Clavicle  0.390164 -13.5365 1.74265
R_UpperArm  5.47173 -0.0479162 9.69137
R_Forearm  13.1116 -5.2594 4.35034
R_Hand  -0.219541 9.24964 -13.5163
L_Clavicle  -0.593539 18.1689 -3.87242
L_UpperArm  -17.828 18.6031 24.3348
L_Forearm  5.18781 40.0335 42.0087
L_Hand  -0.0457093 -1.85471 -1.56856
L_Thigh  -0.8331 2.88313 -1.04421
L_Calf  -3.38653 1.64011 -12.4716
L_Foot  1.14183 7.37125 -2.51811
L_Toe0  -1.08893 0.0582629 -5.05082
R_Thigh  0.560349 4.66232 -16.1563
R_Calf  -3.46427 6.7153 21.6566
R_Foot  -1.58074 -1.31831 9.20401
R_Toe0  -1.31818 -0.269102 -16.9625
387
root  -0.251994 32.4122 -7.87016 86.503 8.24181 88.2931
Spine  -0.447522 6.08143 -10.0915
Spine1  -0.0484459 4.97071 3.33717
Neck  3.97569e-016 0 -2.38542e-015
Head  21.0268 -8.87039 13.7187
R_Clavicle  0.363652 -12.7641 1.46976
R_UpperArm  6.44332 -0.0103544 9.22911
R_Forearm  12.8146 -6.02086 4.99179
R_Hand  -0.130242 9.18024 -12.8379
L_Clavicle  -0.557529 17.569 -4.08872
L_UpperArm  -19.6843 20.1549 26.0691
L_Forearm  6.681 40.6589 43.304
L_Hand  -0.0281581 -1.52718 -0.912278
L_Thigh  -1.80947 1.95007 1.45316
L_Calf  -1.21038 0.307123 -2.68111
L_Foot  1.07592 6.66729 -2.16978
L_Toe0  1.0046 0.0245782 -5.73557
R_Thigh  1.41577 4.32693 -18.7027
R_Calf  -3.65962 7.86687 25.5962
R_Foot  -1.36006 -1.69761 6.52724
R_Toe0  -0.576492 -0.236085 -14.9867
388
root  -0.479008 32.7981 -6.73751 87.2784 6.95178 88.4571
Spine  1.33503 9.28914 -10.6563
Spine1  1.25395 -0.223827 1.63051
Neck  3.97569e-016 0 -2.38542e-015
Head  16.1224 -8.24769 15.829
R_Clavicle  0.358258 -12.3929 1.43436
R_UpperArm  5.92188 0.872327 9.13636
R_Forearm  14.366 -7.71331 6.42672
R_Hand  -0.243999 9.03279 -13.5816
L_Clavicle  -0.531487 17.1806 -4.08496
L_UpperArm  -19.3219 20.829 28.351
L_Forearm  5.96844 40.0303 42.9802
L_Hand  0.00593367 -0.989515 0.0682629
L_Thigh  -3.11136 1.21756 2.81392
L_Calf  2.03056 -1.39429 9.77839
L_Foot  0.889913 6.24329 -2.52067
L_Toe0  0.475762 0.0352731 -6.17489
R_Thigh  2.7223 4.08717 -20.9673
R_Calf  -4.31155 8.90099 29.2761
R_Foot  -1.09973 -1.90588 4.10568
R_Toe0  -1.21886 -0.134202 -11.9177
389
root  -0.717531 33.0862 -5.60603 88.0383 5.96623 88.7184
Spine  2.97234 11.7887 -10.6005
Spine1  2.51439 -4.98168 0.0489345
Neck  3.97569e-016 0 -2.38542e-015
Head  11.2952 -7.64936 17.6055
R_Clavicle  0.384072 -12.442 1.71994
R_UpperArm  4.24701 2.30967 9.21373
R_Forearm  16.0552 -9.75046 8.17496
R_Hand  -0.267521 8.73511 -13.6172
L_Clavicle  -0.523277 17.1032 -3.78371
L_UpperArm  -16.6651 20.4424 30.9905
L_Forearm  2.96637 38.5415 41.3878
L_Hand  0.0359445 -0.498158 0.765411
L_Thigh  -4.89776 0.396935 2.83515
L_Calf  5.77514 -3.21359 23.9988
L_Foot  0.581333 6.4112 -3.88638
L_Toe0  0.505156 0.0363669 -6.13608
R_Thigh  3.53979 3.98394 -23.9087
R_Calf  -4.04198 10.0604 33.5009
R_Foot  -1.11791 -2.60758 2.60577
R_Toe0  -1.11858 -0.0930769 -10.6536
